<?xml version="1.0" standalone="no"?>
<!DOCTYPE svg PUBLIC "-//W3C//DTD SVG 20010904//EN"
 "http://www.w3.org/TR/2001/REC-SVG-20010904/DTD/svg10.dtd">
<svg version="1.0" xmlns="http://www.w3.org/2000/svg"
 width="1200.000000pt" height="1200.000000pt" viewBox="0 0 1200.000000 1200.000000"
 preserveAspectRatio="xMidYMid meet">

<g transform="translate(0.000000,1200.000000) scale(0.100000,-0.100000)"
fill="#000000" stroke="none">
<path d="M5309 7555 c-59 -32 -59 -33 -59 -610 0 -578 0 -573 59 -608 22 -13
52 -17 118 -17 86 0 103 -4 472 -120 450 -141 487 -146 526 -71 8 16 84 253
170 527 118 379 154 506 149 530 -11 61 -45 80 -265 147 l-204 63 -6 50 c-7
59 -29 96 -65 112 -40 19 -861 16 -895 -3z m881 -55 c20 -20 20 -33 20 -555 0
-522 0 -535 -20 -555 -19 -19 -33 -20 -430 -20 -397 0 -411 1 -430 20 -20 20
-20 33 -20 555 0 522 0 535 20 555 19 19 33 20 430 20 397 0 411 -1 430 -20z
m131 -174 c24 -8 110 -36 191 -61 152 -47 178 -62 178 -98 0 -28 -299 -986
-316 -1014 -9 -14 -24 -23 -40 -23 -25 0 -564 164 -594 181 -8 5 86 9 213 9
254 0 272 4 301 64 14 30 16 89 16 495 0 254 1 461 3 461 2 0 23 -7 48 -14z"/>
<path d="M5997 7353 c-19 -54 -38 -106 -42 -115 -5 -13 -2 -18 9 -18 8 0 18
11 22 25 6 23 11 25 59 25 48 0 53 -2 59 -25 4 -14 13 -25 21 -25 8 0 15 1 15
3 -1 1 -18 52 -39 112 -23 67 -44 111 -53 113 -11 2 -25 -25 -51 -95z m79 -27
c6 -24 4 -26 -30 -26 -41 0 -42 0 -19 66 l17 49 12 -31 c7 -17 16 -43 20 -58z"/>
<path d="M5698 7094 c-65 -64 -91 -112 -82 -148 10 -40 38 -59 84 -54 45 4 46
4 25 -45 -22 -53 -20 -57 35 -57 55 0 57 4 35 57 -20 48 -20 50 20 45 71 -8
110 48 79 113 -15 33 -118 145 -133 145 -4 0 -32 -25 -63 -56z"/>
<path d="M5380 6668 c1 -2 18 -52 39 -113 23 -67 44 -111 53 -113 11 -2 25 25
51 95 19 54 38 106 42 116 5 12 2 17 -9 17 -8 0 -18 -11 -22 -25 -6 -23 -11
-25 -59 -25 -48 0 -53 2 -59 25 -4 14 -13 25 -21 25 -8 0 -15 -1 -15 -2z m130
-86 c0 -5 -8 -31 -17 -58 l-17 -49 -12 31 c-7 17 -16 43 -20 58 -6 24 -4 26
30 26 20 0 36 -4 36 -8z"/>
<path d="M6441 7096 c-39 -51 -71 -96 -71 -100 0 -14 26 -4 38 14 14 23 23 24
73 10 31 -9 38 -16 43 -45 10 -51 26 -43 26 13 0 99 -13 202 -25 202 -7 0 -44
-42 -84 -94z m79 -5 l0 -59 -35 11 c-19 6 -35 13 -35 17 0 8 60 90 66 90 2 0
4 -27 4 -59z"/>
<path d="M2400 6300 l0 -70 1350 0 1350 0 0 70 0 70 -1350 0 -1350 0 0 -70z"/>
<path d="M6900 6300 l0 -70 1350 0 1350 0 0 70 0 70 -1350 0 -1350 0 0 -70z"/>
<path d="M7105 5816 c-251 -49 -433 -219 -496 -464 -23 -92 -25 -265 -4 -367
37 -176 159 -337 316 -414 118 -57 191 -74 329 -74 135 -1 210 16 320 70 97
48 230 178 278 272 l32 64 0 173 0 174 -340 0 -340 0 0 -130 0 -130 180 0 c99
0 180 -4 180 -8 0 -17 -59 -90 -92 -114 -56 -42 -97 -53 -193 -52 -106 0 -178
27 -238 89 -91 93 -113 306 -45 438 28 55 92 113 145 131 55 19 160 21 216 4
22 -7 59 -29 80 -50 l40 -38 194 0 193 0 -6 28 c-3 15 -23 64 -45 108 -66 137
-193 237 -359 279 -87 23 -257 28 -345 11z"/>
<path d="M4080 5155 l0 -655 185 0 185 0 0 225 0 225 135 0 c153 0 215 10 301
51 117 55 195 151 224 278 17 73 8 201 -20 274 -44 116 -171 217 -308 246 -32
7 -180 11 -377 11 l-325 0 0 -655z m631 328 c61 -61 48 -192 -23 -229 -23 -12
-65 -19 -135 -22 l-103 -5 0 148 0 147 115 -4 c114 -3 115 -3 146 -35z"/>
<path d="M5360 5155 l0 -655 180 0 180 0 0 225 0 225 138 0 c218 0 334 40 432
147 75 81 94 142 95 288 0 111 -2 125 -28 179 -55 119 -142 191 -275 227 -59
17 -106 19 -394 19 l-328 0 0 -655z m600 350 c40 -21 60 -63 60 -127 0 -108
-42 -139 -196 -146 l-104 -5 0 147 0 146 105 0 c75 0 115 -4 135 -15z"/>
</g>
</svg>
